# xmcd
#
# Track frame offsets:
#	150
#	12601
#	22914
#	35144
#	44873
#	56768
#	69040
#	86031
#	103321
#
# Disc length: 1480 seconds
#
# Revision: 0
# Processed by: cddbd v1.4PL0 Copyright (c) Steve Scherf et al.
# Submitted via: dBpowerAMP V4.0
#
DISCID=7d05c609
DTITLE=Pierce Arrow - Christmas Favorites
DYEAR=2002
DGENRE=Country
TTITLE0=Hark The Herald Angels Sing
TTITLE1=Sleigh Ride
TTITLE2=Let There Be Peace On Earth
TTITLE3=When Was Jesus Born
TTITLE4=Thank God For Kids
TTITLE5=Angels We Have Heard On High
TTITLE6=Mary Did You Know
TTITLE7=Silent Night! Holy Night!
TTITLE8=White Christmas
EXTD=
EXTT0=
EXTT1=
EXTT2=
EXTT3=
EXTT4=
EXTT5=
EXTT6=
EXTT7=
EXTT8=
PLAYORDER=
